<svg id="Layer_1" data-name="Layer 1" xmlns="http://www.w3.org/2000/svg" viewBox="0 0 908.9 181.89"><defs><style>.cls-1{fill:#ec4c4c;}.cls-2{fill:#fbc108;}.cls-3{fill:#4fabd2;}.cls-4{fill:#112d4a;}</style></defs><path class="cls-1" d="M83.68,127.24,135.44,83.6c3.06-2.58,7.14-2.77,9.12-.42l6.15,7.3c2,2.36,1.11,6.38-2,9L97,143.05a20.3,20.3,0,0,0-13.36-15.81Z"/><path class="cls-2" d="M67.67,108.2l51.77-43.64c3-2.58,7.14-2.76,9.12-.42l6.14,7.3c2,2.36,1.12,6.38-2,9L81,124A20.29,20.29,0,0,0,67.67,108.2Z"/><path class="cls-3" d="M122.32,56.8,70.56,100.44c-3.06,2.58-7.14,2.77-9.12.42l-6.15-7.29c-2-2.37-1.11-6.39,2-9L109,41a20.3,20.3,0,0,0,13.36,15.8Z"/><path class="cls-4" d="M179.57,74.32q0-5.38,5.25-5.38h5q5.25,0,5.25,5.38v4a9.88,9.88,0,0,1-.06,1.15,6.41,6.41,0,0,0-.07.9,4,4,0,0,0-.12.9h.25a22.69,22.69,0,0,1,3.21-4.87,26.42,26.42,0,0,1,4.8-4.42,26,26,0,0,1,6.16-3.27,20.39,20.39,0,0,1,7.24-1.28q15,0,19.09,13.45h.26a21.92,21.92,0,0,1,3.52-5,26.37,26.37,0,0,1,5.13-4.3,28,28,0,0,1,6.34-3,22.93,22.93,0,0,1,7.31-1.15q10.25,0,15.83,6t5.57,18.9v36.65q0,5.39-5.38,5.39h-5.51q-5.38,0-5.39-5.39V95.34a37.84,37.84,0,0,0-.32-5.19,11.49,11.49,0,0,0-1.28-4.1,7.08,7.08,0,0,0-2.75-2.76,9.29,9.29,0,0,0-4.62-1A13.51,13.51,0,0,0,247,84.19a16.75,16.75,0,0,0-5.25,5.12,23.4,23.4,0,0,0-3.14,7.31,33.88,33.88,0,0,0-1,8.33v24q0,5.39-5.25,5.39h-5.64q-5.39,0-5.38-5.39V95.34a47.58,47.58,0,0,0-.26-5.07,11.31,11.31,0,0,0-1.22-4.16,7.09,7.09,0,0,0-2.69-2.82,8.89,8.89,0,0,0-4.55-1,13.81,13.81,0,0,0-7.5,2,17.22,17.22,0,0,0-5.25,5.26,24.18,24.18,0,0,0-3.14,7.3,32.67,32.67,0,0,0-1,8.14v24q0,5.39-5.25,5.39h-5.64q-5.25,0-5.25-5.39Z"/><path class="cls-4" d="M291.71,146.79a5.44,5.44,0,0,1,3.2-.19c.6.26,1.28.51,2,.77a8,8,0,0,0,2.56.38,8.71,8.71,0,0,0,6.28-2.62,17.8,17.8,0,0,0,4.1-6.09l2.44-5.77L287.48,75.22q-1.29-2.82-.13-4.55c.77-1.16,2.18-1.73,4.23-1.73h6.92a5.9,5.9,0,0,1,6,4.35l12.3,33.33q.39,1.41.84,2.88c.3,1,.57,1.94.83,2.88a20.4,20.4,0,0,1,.77,3.08h.26a28.39,28.39,0,0,1,.64-2.95c.17-.85.4-1.77.7-2.76s.58-1.94.84-2.88l11.53-33.45a5.68,5.68,0,0,1,6-4.48h6.41c2,0,3.35.55,4.17,1.66s.87,2.61.19,4.49L323.11,144a28.1,28.1,0,0,1-4.23,7.69,26.59,26.59,0,0,1-5.64,5.32,23.13,23.13,0,0,1-6.6,3.14,25.53,25.53,0,0,1-7.12,1,18.43,18.43,0,0,1-5-.64c-1.54-.43-2.91-.85-4.11-1.28a4.42,4.42,0,0,1-2.88-2.82,5.61,5.61,0,0,1,.45-4.1l1.15-2.82A5,5,0,0,1,291.71,146.79Z"/><path class="cls-4" d="M360,48.69q0-5.38,5.39-5.39h5.51q5.38,0,5.38,5.39V72.4c0,.85,0,1.6-.06,2.24s-.11,1.22-.2,1.73a11.88,11.88,0,0,0-.12,1.54h.25a20.7,20.7,0,0,1,4.62-5.26A29.08,29.08,0,0,1,387,69.06a22.7,22.7,0,0,1,9.17-1.66A27.49,27.49,0,0,1,408,69.9a26.38,26.38,0,0,1,9.1,7,31.86,31.86,0,0,1,5.83,10.77A44.28,44.28,0,0,1,425,101.49a41.4,41.4,0,0,1-2.3,14.16,33.3,33.3,0,0,1-6.29,10.83,27.11,27.11,0,0,1-9.48,6.92,28.87,28.87,0,0,1-11.79,2.43,23,23,0,0,1-9.36-1.66,23.71,23.71,0,0,1-6.15-3.85,17.3,17.3,0,0,1-4.48-5.51h-.26a3.19,3.19,0,0,0,.13.77,7.81,7.81,0,0,0,.06.9,8.07,8.07,0,0,1,.07,1.15v2.05a4.33,4.33,0,0,1-1.35,3.4,5.86,5.86,0,0,1-4,1.22H365.4q-5.38,0-5.39-5.39Zm15.77,53a28.78,28.78,0,0,0,1,7.67,20,20,0,0,0,3.08,6.51,16.05,16.05,0,0,0,5.06,4.54,13.83,13.83,0,0,0,7,1.72,15.65,15.65,0,0,0,6.47-1.34,15,15,0,0,0,5.25-3.9,18.46,18.46,0,0,0,3.53-6.32,26.85,26.85,0,0,0,1.28-8.62,27.16,27.16,0,0,0-1.22-8.37,20.48,20.48,0,0,0-3.33-6.45A14.85,14.85,0,0,0,398.85,83a14.6,14.6,0,0,0-6.54-1.46,15.94,15.94,0,0,0-6.15,1.21,14.8,14.8,0,0,0-5.26,3.7,19,19,0,0,0-3.71,6.26A25.79,25.79,0,0,0,375.78,101.68Z"/><path class="cls-4" d="M433.19,101.62A33.53,33.53,0,0,1,436,87.84,32.39,32.39,0,0,1,443.7,77,36.16,36.16,0,0,1,455.11,70a39.4,39.4,0,0,1,27.94,0A37,37,0,0,1,494.52,77a32,32,0,0,1,7.75,10.83,35.22,35.22,0,0,1,0,27.62,32.79,32.79,0,0,1-7.75,10.83,35.58,35.58,0,0,1-11.47,7,40.43,40.43,0,0,1-27.94,0,34.77,34.77,0,0,1-11.41-7,33.15,33.15,0,0,1-10.51-24.67Zm16.54,0a21.73,21.73,0,0,0,1.53,8.33,20,20,0,0,0,4.17,6.4,18.31,18.31,0,0,0,6.15,4.17,19.84,19.84,0,0,0,15,0,19,19,0,0,0,6.22-4.17A19.52,19.52,0,0,0,487,110a23.14,23.14,0,0,0,0-16.6,19.42,19.42,0,0,0-4.23-6.47,19.61,19.61,0,0,0-21.21-4.17,18.46,18.46,0,0,0-6.15,4.17,19.92,19.92,0,0,0-4.17,6.47A21.85,21.85,0,0,0,449.73,101.62Z"/><path class="cls-4" d="M513,101.62a38.12,38.12,0,0,1,2.43-13.85A32.39,32.39,0,0,1,522.26,77a29.85,29.85,0,0,1,10.51-7,35.36,35.36,0,0,1,13.46-2.5,30.74,30.74,0,0,1,12.37,2.37,25.84,25.84,0,0,1,9.1,6.47,28,28,0,0,1,5.57,9.87,39.1,39.1,0,0,1,1.92,12.43,5.57,5.57,0,0,1-5.63,5.51H529.7a20.6,20.6,0,0,0,2.11,7.82,18.4,18.4,0,0,0,4.36,5.57,18.14,18.14,0,0,0,6,3.4,23.41,23.41,0,0,0,15.25-.26,35.35,35.35,0,0,0,6-2.82,6.62,6.62,0,0,1,4.17-.76,4.86,4.86,0,0,1,3,2.56l1.54,2.56q2.43,4.62-1.8,7.18a52.71,52.71,0,0,1-8.84,4.29,35.88,35.88,0,0,1-13.33,2.24,37.23,37.23,0,0,1-14.61-2.75,33.21,33.21,0,0,1-11.08-7.43,32.24,32.24,0,0,1-7-10.9A35.72,35.72,0,0,1,513,101.62Zm46-7.44q-.27-6.92-3.91-10.7a12.38,12.38,0,0,0-9.29-3.78,14.58,14.58,0,0,0-10.45,4,18.51,18.51,0,0,0-5.32,10.51Z"/><path class="cls-4" d="M587,48.69q0-5.38,5.39-5.39h5.51c3.58,0,5.38,1.8,5.38,5.39V92h8.07l13.59-19.48a7,7,0,0,1,6.41-3.58h6.15q3.33,0,4.23,1.92c.59,1.28.3,2.78-.9,4.48L624.53,98.16v.25l19.23,29.48q1.66,2.82.7,4.61t-4.29,1.8h-6.92a6.71,6.71,0,0,1-6.28-3.72l-15.25-24.86h-8.46v23.19c0,3.59-1.8,5.39-5.38,5.39h-5.51q-5.39,0-5.39-5.39Z"/><path class="cls-4" d="M650.29,101.62a37.91,37.91,0,0,1,2.44-13.85A32.23,32.23,0,0,1,659.52,77a29.76,29.76,0,0,1,10.51-7,35.36,35.36,0,0,1,13.46-2.5,30.69,30.69,0,0,1,12.36,2.37,25.75,25.75,0,0,1,9.1,6.47,27.81,27.81,0,0,1,5.58,9.87,39.1,39.1,0,0,1,1.92,12.43,5.57,5.57,0,0,1-5.64,5.51H667a20.79,20.79,0,0,0,2.12,7.82,17.93,17.93,0,0,0,10.38,9,21.89,21.89,0,0,0,7.11,1.15,22.22,22.22,0,0,0,8.14-1.41,35.73,35.73,0,0,0,6-2.82,6.6,6.6,0,0,1,4.17-.76,4.88,4.88,0,0,1,3,2.56l1.54,2.56q2.43,4.62-1.8,7.18a53.1,53.1,0,0,1-8.84,4.29,35.88,35.88,0,0,1-13.33,2.24,37.23,37.23,0,0,1-14.61-2.75,33.25,33.25,0,0,1-11.09-7.43,32.37,32.37,0,0,1-7-10.9A35.52,35.52,0,0,1,650.29,101.62Zm46-7.44q-.25-6.92-3.91-10.7a12.35,12.35,0,0,0-9.29-3.78,14.56,14.56,0,0,0-10.44,4,18.51,18.51,0,0,0-5.32,10.51Z"/><path class="cls-4" d="M724.24,74.32q0-5.38,5.26-5.38h5q5.26,0,5.26,5.38v4a8,8,0,0,1-.07,1.15,8.1,8.1,0,0,0-.06.9,3.54,3.54,0,0,0-.13.9h.26a26.13,26.13,0,0,1,3-4.49,24,24,0,0,1,4.74-4.48,27.1,27.1,0,0,1,6.66-3.46,25.62,25.62,0,0,1,8.84-1.41q10.9,0,16.86,5.89t6,19v36.65q0,5.39-5.39,5.39h-5.51c-3.58,0-5.38-1.8-5.38-5.39V95.59a19.67,19.67,0,0,0-2.05-9.67q-2.05-3.66-8.2-3.66a17.81,17.81,0,0,0-7.82,1.67,17.24,17.24,0,0,0-5.89,4.61,21.87,21.87,0,0,0-3.79,6.86,25.42,25.42,0,0,0-1.34,8.27v25.24q0,5.39-5.26,5.39H729.5q-5.26,0-5.26-5.39Z"/><path class="cls-4" d="M798.51,127.72c0-1.83.94-2.75,2.81-2.75h2.95c1.88,0,2.82.92,2.82,2.75v3a2.49,2.49,0,0,1-2.82,2.82h-2.95a2.49,2.49,0,0,1-2.81-2.82Z"/><path class="cls-4" d="M816.67,102.18c0-1.88.92-2.81,2.75-2.81H822c1.83,0,2.75.93,2.75,2.81v2.08a5.16,5.16,0,0,1,0,.6,4.38,4.38,0,0,0,0,.47,1.78,1.78,0,0,0-.07.47h.14a14.13,14.13,0,0,1,1.54-2.35,12.66,12.66,0,0,1,2.48-2.34,13.9,13.9,0,0,1,3.48-1.81,13.51,13.51,0,0,1,4.63-.74q5.7,0,8.82,3.09t3.11,9.92v19.17a2.49,2.49,0,0,1-2.81,2.82h-2.88a2.49,2.49,0,0,1-2.82-2.82V113.31a10.36,10.36,0,0,0-1.07-5.06c-.72-1.28-2.15-1.91-4.29-1.91a9.3,9.3,0,0,0-4.09.87,9,9,0,0,0-3.09,2.41,11.25,11.25,0,0,0-2,3.59,13.14,13.14,0,0,0-.71,4.32v13.21c0,1.88-.91,2.82-2.75,2.82h-3c-1.83,0-2.75-.94-2.75-2.82Z"/><path class="cls-4" d="M858.44,88.77c0-1.87.92-2.81,2.75-2.81h2.95c1.83,0,2.75.94,2.75,2.81v33.46a7.44,7.44,0,0,0,.23,2,3.07,3.07,0,0,0,.64,1.21,2.21,2.21,0,0,0,.87.6,5.41,5.41,0,0,0,.94.24,2.6,2.6,0,0,1,1.51.7,2.32,2.32,0,0,1,.57,1.71V131a3.24,3.24,0,0,1-.64,2.11,2.69,2.69,0,0,1-2.18.77,19.8,19.8,0,0,1-3.55-.33,7.83,7.83,0,0,1-5.87-4.8,14.59,14.59,0,0,1-1-5.86Z"/></svg>